{"accessors":[{"bufferView":0,"byteOffset":0,"componentType":5123,"count":3000,"max":[2999],"min":[0],"type":"SCALAR"},{"bufferView":1,"byteOffset":0,"componentType":5126,"count":3000,"max":[0.9995449781417847,0.9965230226516724,0.9969419836997986],"min":[-0.9995970129966736,-0.9990860223770142,-0.9943919777870178],"type":"VEC3"},{"bufferView":1,"byteOffset":36000,"componentType":5126,"count":3000,"max":[1.1080999374389648,5.877859592437744,5.924050331115723],"min":[-1.1080900430679321,-3.8214800357818604,-0.006356390193104744],"type":"VEC3"},{"bufferView":0,"byteOffset":6000,"componentType":5123,"count":1077,"max":[1076],"min":[0],"type":"SCALAR"},{"bufferView":1,"byteOffset":72000,"componentType":5126,"count":1077,"max":[0.9995219707489014,0.9999250173568726,0.9933509826660156],"min":[-0.9930880069732666,-0.9718019962310791,-0.9947519898414612],"type":"VEC3"},{"bufferView":1,"byteOffset":84924,"componentType":5126,"count":1077,"max":[0.5398789644241333,5.714399337768555,4.604780197143555],"min":[-0.5288999676704407,4.569180011749268,3.8242602348327637],"type":"VEC3"},{"bufferView":0,"byteOffset":8154,"componentType":5123,"count":198,"max":[197],"min":[0],"type":"SCALAR"},{"bufferView":1,"byteOffset":97848,"componentType":5126,"count":198,"max":[0.9719939827919006,0.9701189994812012,0.9777590036392212],"min":[-0.9881269931793213,-0.9993590116500854,-0.9467499852180481],"type":"VEC3"},{"bufferView":1,"byteOffset":100224,"componentType":5126,"count":198,"max":[0.3389139771461487,5.108299732208252,4.9079999923706055],"min":[-0.34036096930503845,5.0027899742126465,4.745199680328369],"type":"VEC3"},{"bufferView":0,"byteOffset":8550,"componentType":5123,"count":1077,"max":[1074],"min":[0],"type":"SCALAR"},{"bufferView":1,"byteOffset":102600,"componentType":5126,"count":1075,"max":[0.9942449927330017,0.9792969822883606,0.9982870221138],"min":[-0.9941340088844299,-0.9443820714950562,-0.95871901512146],"type":"VEC3"},{"bufferView":1,"byteOffset":115500,"componentType":5126,"count":1075,"max":[1.3372700214385986,4.93966007232666,5.6390204429626465],"min":[-1.3303899765014648,-4.303520202636719,0.34357699751853943],"type":"VEC3"}],"asset":{"generator":"COLLADA2GLTF","version":"2.0"},"bufferViews":[{"buffer":0,"byteLength":10704,"byteOffset":0,"target":34963},{"buffer":0,"byteLength":128400,"byteOffset":10704,"byteStride":12,"target":34962}],"buffers":[{"name":"output","byteLength":139104,"uri":"data:application/octet-stream;base64,"}],"materials":[{"name":"ID2","pbrMetallicRoughness":{"baseColorFactor":[0.800000011920929,0.800000011920929,0.800000011920929,1],"metallicFactor":0,"roughnessFactor":1},"emissiveFactor":[0,0,0],"alphaMode":"OPAQUE","doubleSided":false},{"name":"ID2","pbrMetallicRoughness":{"baseColorFactor":[0.800000011920929,0.800000011920929,0.800000011920929,1],"metallicFactor":0,"roughnessFactor":1},"emissiveFactor":[0,0,0],"alphaMode":"OPAQUE","doubleSided":false},{"name":"ID2","pbrMetallicRoughness":{"baseColorFactor":[0.800000011920929,0.800000011920929,0.800000011920929,1],"metallicFactor":0,"roughnessFactor":1},"emissiveFactor":[0,0,0],"alphaMode":"OPAQUE","doubleSided":false},{"name":"ID2","pbrMetallicRoughness":{"baseColorFactor":[0.800000011920929,0.800000011920929,0.800000011920929,1],"metallicFactor":0,"roughnessFactor":1},"emissiveFactor":[0,0,0],"alphaMode":"OPAQUE","doubleSided":false}],"meshes":[{"name":"ID5","primitives":[{"attributes":{"NORMAL":1,"POSITION":2},"indices":0,"material":0,"mode":4}]},{"name":"ID32","primitives":[{"attributes":{"NORMAL":4,"POSITION":5},"indices":3,"material":1,"mode":4}]},{"name":"ID23","primitives":[{"attributes":{"NORMAL":7,"POSITION":8},"indices":6,"material":2,"mode":4}]},{"name":"ID14","primitives":[{"attributes":{"NORMAL":10,"POSITION":11},"indices":9,"material":3,"mode":4}]}],"nodes":[{"children":[1],"name":"Y_UP"},{"children":[4,3,2],"matrix":[-0.0060334880836308,-4.489582317024343e-11,0.9999818205833435,0,0.9999818205833435,-2.7088335914637884e-13,0.0060334880836308,0,0,1,4.489664195972409e-11,0,-0.17680498957633972,0.06398110091686249,-0.0010667499154806137,1],"mesh":0,"name":"grp1"},{"matrix":[1,0,0,0,0,1,0,0,0,0,1,0,0,-1.0702199250012143e-17,-1.7828900376096474e-17,1],"mesh":1,"name":"grp2"},{"matrix":[1,0,0,0,0,1,0,0,0,0,1,0,0,-1.0702199250012143e-17,-1.7828900376096474e-17,1],"mesh":2,"name":"grp3"},{"matrix":[1,0,0,0,0,1,0,0,0,0,1,0,0,-1.0702199250012143e-17,-1.7828900376096474e-17,1],"mesh":3,"name":"grp1_2"}],"scene":0,"scenes":[{"nodes":[0]}]}
